<?xml version="1.0" encoding="UTF-8"?>
<svg width="64" height="64" version="1.1" xml:space="preserve" xmlns="http://www.w3.org/2000/svg" xmlns:xlink="http://www.w3.org/1999/xlink"><defs><linearGradient id="A-9" x1="4.563" x2="61.438" y1="56.796" y2="56.859" gradientTransform="translate(.00234 .0012754)" gradientUnits="userSpaceOnUse"><stop stop-color="#2f748f" offset="0"/></linearGradient><linearGradient id="linearGradient6" x1="317.44" x2="379.19" y1="522.92" y2="522.92" gradientTransform="translate(68.002 .0012754)" gradientUnits="userSpaceOnUse"><stop stop-color="#64c3ae" offset="0"/><stop stop-color="#1cc7de" offset="1"/></linearGradient><linearGradient id="linearGradient9" x1="32.448" x2="32.448" y1="17.256" y2="49.381" gradientUnits="userSpaceOnUse"><stop stop-color="#2c687d" offset="0"/><stop stop-color="#2c687d" stop-opacity="0" offset="1"/></linearGradient></defs><path d="m2.0023 51.646s0.022782 1.5624 0.088388 2.378c0.13451 1.6721 1.5126 3.436 3.4776 3.436h52.867c1.97 0 3.3621-1.4087 3.4776-3.436 0.04506-0.79105 0.08838-2.377 0.08838-2.377" fill="url(#A-9)"/><g><path transform="translate(-384.57 -483.8)" d="M416.09 497.005c-.88 0-1.922-.516-2.317-1.148l-1.77-2.884c-.393-.631-1.435-1.147-2.315-1.148l-19.27-.027c-1.946-.003-3.44 1.416-3.44 3.166l-.012 39.848h59.217v-35.24c0-1.554-.914-2.567-2.515-2.567z" fill="#ade0dc" stop-color="#000000" style="-inkscape-stroke:none;font-variation-settings:normal"/><path d="M57.94 26.826H6.448v-7.23c0-1.183.868-2.41 2.519-2.41h46.258c1.678 0 2.716 1.226 2.716 2.41z" fill="url(#linearGradient9)" stop-color="#000000" style="-inkscape-stroke:none;font-variation-settings:normal"/><path transform="translate(-384.57 -483.8)" d="M445.08 507.577h-57.018c-1.728 0-3.567 1.479-3.455 2.95l1.965 25.835c.148 1.945 1.601 3.436 3.566 3.436h52.867c1.97 0 3.418-1.49 3.566-3.436l1.965-25.834c.112-1.471-1.728-2.951-3.455-2.951" fill="url(#linearGradient6)" stop-color="#000000" style="-inkscape-stroke:none;font-variation-settings:normal"/></g></svg>
