<svg xmlns="http://www.w3.org/2000/svg" width="64" height="64"><defs><linearGradient id="A" x1="4.563" y1="56.796" x2="61.438" y2="56.859" gradientUnits="userSpaceOnUse"><stop offset="0" stop-color="#2f748f"/></linearGradient><linearGradient id="B" x1="1.939" y1="36.929" x2="61.414" y2="36.929" gradientUnits="userSpaceOnUse"><stop offset="0" stop-color="#64c3ae"/><stop offset="1" stop-color="#1cc7de"/></linearGradient></defs><path fill="url(#A)" d="M2 51.645v2.378c0 1.951 1.601 3.436 3.566 3.436h52.867c1.97 0 3.566-1.484 3.566-3.436v-2.377"/><path fill="#ade0dc" d="M31.519 13.207c-.88 0-1.922-.516-2.317-1.148l-1.77-2.884c-.393-.631-1.435-1.147-2.315-1.148L5.847 8c-1.946-.003-3.44 1.416-3.44 3.166l-.012 39.848h59.217v-35.24c0-1.554-.914-2.567-2.515-2.567z"/><path fill="#2c687d" d="M57.94 26.826H6.448v-7.23c0-1.183.868-2.41 2.519-2.41h46.258c1.678 0 2.716 1.226 2.716 2.41z"/><path fill="url(#B)" d="M58.757 21.338H5.244c-1.622 0-3.243 1.475-3.243 2.95v28.276C2.001 54.515 3.602 56 5.567 56h52.867C60.404 56 62 54.516 62 52.564V24.289c0-1.475-1.622-2.951-3.243-2.951"/><path d="m43.199 43.685h-4.046a1.2619 1.2619 0 0 0 0 2.5177h11.93l-1.3921-2.5177h-3.8217l3.9458-7.2607c0.23234-0.96543-1.0556-2.2573-2.2834-0.7411m3.0745 2.1932-1.3921 2.4276 6.4796 11.932s0.41461 0.86127 1.4081 0.70504c1.1337-0.18027 1.0896-1.2819 0.52077-2.1572l-2.4676-4.5788h2.6519a1.2619 1.2619 0 0 0 0-2.5177h-4.042zm-9.3939 9.3939-1.8768 3.5132c-0.38056 0.69503-0.48872 1.6104 0.16625 2.009s1.34 0.14021 1.7145-0.55682l2.6679-4.9673z" fill="#2c6b80" stroke-width="2.003"/></svg>